<?xml version="1.0" encoding="UTF-8" standalone="no"?>
<!DOCTYPE svg PUBLIC "-//W3C//DTD SVG 1.1//EN" "http://www.w3.org/Graphics/SVG/1.1/DTD/svg11.dtd">
<svg width="100%" height="100%" viewBox="0 0 64 64" version="1.1" xmlns="http://www.w3.org/2000/svg" xmlns:xlink="http://www.w3.org/1999/xlink" xml:space="preserve" xmlns:serif="http://www.serif.com/" style="fill-rule:evenodd;clip-rule:evenodd;stroke-linejoin:round;stroke-miterlimit:2;">
    <g id="BG_example">
    </g>
    <g id="OLD_VERSIONS">
    </g>
    <g id="Center_Z" transform="matrix(-6.12323e-17,1,1,6.12323e-17,7.47158e-15,0)">
        <g transform="matrix(0.711412,0,0,1.15644,24.6821,-3.6319)">
            <rect x="4.446" y="3.141" width="11.682" height="55.342" style="fill:rgb(47,149,186);"/>
        </g>
        <g transform="matrix(-1.31308e-17,1.02725,-0.590844,6.89772e-17,50.2049,10.9333)">
            <rect x="4.446" y="3.141" width="11.682" height="55.342" style="fill:white;"/>
            <path d="M2.823,0.32L2.823,61.304L17.75,61.304L17.75,0.32L2.823,0.32ZM16.127,3.141L16.127,58.483L4.446,58.483L4.446,3.141L16.127,3.141Z" style="fill:rgb(29,29,29);"/>
        </g>
        <g transform="matrix(-1.31308e-17,1.02725,-0.90347,1.05474e-16,59.8374,31.7047)">
            <rect x="4.446" y="3.141" width="11.682" height="55.342" style="fill:white;"/>
            <path d="M2.823,1.296L2.823,60.327L17.75,60.327L17.75,1.296L2.823,1.296ZM16.127,3.141L16.127,58.483L4.446,58.483L4.446,3.141L16.127,3.141Z" style="fill:rgb(29,29,29);"/>
        </g>
    </g>
</svg>
