<?xml version="1.0" encoding="UTF-8" standalone="no"?>
<!DOCTYPE svg PUBLIC "-//W3C//DTD SVG 1.1//EN" "http://www.w3.org/Graphics/SVG/1.1/DTD/svg11.dtd">
<svg width="100%" height="100%" viewBox="0 0 64 64" version="1.1" xmlns="http://www.w3.org/2000/svg" xmlns:xlink="http://www.w3.org/1999/xlink" xml:space="preserve" xmlns:serif="http://www.serif.com/" style="fill-rule:evenodd;clip-rule:evenodd;stroke-linejoin:round;stroke-miterlimit:2;">
    <g id="BG_example">
    </g>
    <g id="OLD_VERSIONS">
    </g>
    <g id="Right_Z" transform="matrix(-6.12323e-17,1,1,6.12323e-17,3.88578e-16,2.13163e-14)">
        <g transform="matrix(0.688464,-2.15277e-18,-3.66774e-18,1.15644,-3.06063,-3.6319)">
            <rect x="4.446" y="3.141" width="11.682" height="55.342" style="fill:rgb(47,149,186);"/>
        </g>
        <g transform="matrix(-1.31308e-17,1.02725,-0.590844,6.89772e-17,46.5542,10.9333)">
            <rect x="4.446" y="3.141" width="11.682" height="55.342" style="fill:white;"/>
            <path d="M2.823,0.32L2.823,61.304L17.75,61.304L17.75,0.32L2.823,0.32ZM16.127,3.141L16.127,58.483L4.446,58.483L4.446,3.141L16.127,3.141Z" style="fill:rgb(29,29,29);"/>
        </g>
        <g transform="matrix(-1.16102e-17,1.02725,-0.885401,1.04368e-16,63.7807,31.7047)">
            <rect x="4.446" y="3.141" width="11.682" height="55.342" style="fill:white;"/>
            <path d="M2.823,1.258L2.823,60.365L17.75,60.365L17.75,1.258L2.823,1.258ZM16.127,3.141L16.127,58.483L4.446,58.483L4.446,3.141L16.127,3.141Z" style="fill:rgb(29,29,29);"/>
        </g>
    </g>
</svg>
