<?xml version="1.0" encoding="UTF-8" standalone="no"?>
<!DOCTYPE svg PUBLIC "-//W3C//DTD SVG 1.1//EN" "http://www.w3.org/Graphics/SVG/1.1/DTD/svg11.dtd">
<svg width="100%" height="100%" viewBox="0 0 64 64" version="1.1" xmlns="http://www.w3.org/2000/svg" xmlns:xlink="http://www.w3.org/1999/xlink" xml:space="preserve" xmlns:serif="http://www.serif.com/" style="fill-rule:evenodd;clip-rule:evenodd;stroke-linejoin:round;stroke-miterlimit:2;">
    <g id="BG_example">
    </g>
    <g id="OLD_VERSIONS">
    </g>
    <g id="Left_Z">
        <g transform="matrix(4.21562e-17,-0.688464,1.15644,7.08116e-17,-3.6319,67.0606)">
            <rect x="4.446" y="3.141" width="11.682" height="55.342" style="fill:rgb(47,149,186);"/>
        </g>
        <g transform="matrix(1.02725,0,-2.46519e-32,0.590342,10.9333,17.4327)">
            <rect x="4.446" y="3.141" width="11.682" height="55.342" style="fill:white;"/>
            <path d="M17.75,61.306L2.823,61.306L2.823,0.317L17.75,0.317L17.75,61.306ZM16.127,3.141L4.446,3.141L4.446,58.483L16.127,58.483L16.127,3.141Z" style="fill:rgb(29,29,29);"/>
        </g>
        <g transform="matrix(1.02725,1.16143e-32,-1.2326e-32,0.884634,31.7047,0.221734)">
            <rect x="4.446" y="3.141" width="11.682" height="55.342" style="fill:white;"/>
            <path d="M17.75,60.367L2.823,60.367L2.823,1.257L17.75,1.257L17.75,60.367ZM16.127,3.141L4.446,3.141L4.446,58.483L16.127,58.483L16.127,3.141Z" style="fill:rgb(29,29,29);"/>
        </g>
    </g>
</svg>
